:SAMPLES-PER-SECOND 30
:FULLY-SPECIFIED
:DEGREES
1
root  81.7185 40.3983 0.938022 162.858 -87.6288 -163.254
RightUpLeg  0.122741 -7.02388 -4.37221
RightLeg  2.46294 0.494812 3.25963
RightFoot  -1.02003 0.0270398 -0.507224
RightToes  0.00048216 0.542163 -0.142577
Spine  5.43506 1.0858 1.68832
Spine1  2.68125 1.4533 -1.41014
HEad  5.38952 -0.774278 0.220652
LeftShoulder1  0.758391 -0.370704 -12.312
LeftArm  -23.1867 2.42349 -1.86309
LeftForeArm  31.4495 1.82368 1.19223
LeftHand  -0.25398 0.0180481 5.50724
RightShoulder  0.449264 -0.870176 9.6246
RightArm  -22.1618 2.13018 1.85582
RightForeArm  -4.56085 -0.41785 3.05408
RightHand  -1.69849 5.52057 -18.306
LeftUpLeg  1.00045 6.21705 4.29635
LeftLeg  4.13581 13.4701 -3.51504
LeftFoot  -3.96781 0.0123276 0.202981
LeftToes  1.06248e-005 4.65856e-005 -8.185e-006
2
root  81.7064 40.3983 0.952438 163.175 -87.6656 -163.548
RightUpLeg  0.105543 -7.06208 -4.42601
RightLeg  2.49655 0.503577 3.2647
RightFoot  -1.05274 0.0266062 -0.500489
RightToes  0.00048216 0.542163 -0.142577
Spine  6.29548 0.861507 1.84993
Spine1  0.966352 1.26877 -1.69528
HEad  4.24932 -1.16471 -0.0188267
LeftShoulder1  0.839915 -0.616203 -13.2424
LeftArm  -22.6821 2.76803 -0.512628
LeftForeArm  31.8143 1.87747 1.08938
LeftHand  -0.25398 0.0180481 5.50724
RightShoulder  0.642861 0.111986 10.578
RightArm  -21.3653 1.75435 0.521851
RightForeArm  -4.47096 -0.528725 3.23743
RightHand  -1.7355 5.80167 -18.2458
LeftUpLeg  0.999336 6.18175 4.23924
LeftLeg  4.11131 13.4884 -3.51748
LeftFoot  -3.98537 0.0108601 0.225787
LeftToes  1.06248e-005 4.65856e-005 -8.185e-006
3
root  81.6835 40.398 0.97908 162.745 -87.7369 -163.052
RightUpLeg  0.0601249 -7.07326 -4.46255
RightLeg  2.53594 0.452295 3.24392
RightFoot  -1.09223 0.0232238 -0.447952
RightToes  0.00048216 0.542163 -0.142577
Spine  5.48349 0.857313 1.87138
Spine1  2.11211 1.27431 -1.70481
HEad  4.11167 -0.889035 0.0785081
LeftShoulder1  0.818272 -0.571431 -12.8987
LeftArm  -23.1973 2.46572 -1.04184
LeftForeArm  32.2622 2.09181 1.31171
LeftHand  -0.25398 0.0180481 5.50724
RightShoulder  0.611213 -0.0319761 10.3499
RightArm  -21.798 1.88198 0.864556
RightForeArm  -3.89864 -0.722727 3.05961
RightHand  -1.77237 6.15992 -18.0697
LeftUpLeg  0.937918 6.15319 4.18695
LeftLeg  4.13726 13.4608 -3.51456
LeftFoot  -4.03244 0.00923148 0.251097
LeftToes  1.06248e-005 4.65856e-005 -8.185e-006
4
root  81.6576 40.3969 1.00944 161.366 -87.8231 -161.625
RightUpLeg  0.0548103 -7.03464 -4.4553
RightLeg  2.54268 0.331907 3.18537
RightFoot  -1.11355 0.0193723 -0.388133
RightToes  0.00048216 0.542163 -0.142577
Spine  4.81609 0.887386 1.83481
Spine1  2.99911 1.27513 -1.5389
HEad  3.99317 -0.552318 -0.0152451
LeftShoulder1  0.895342 -0.939617 -12.9959
LeftArm  -23.129 2.57713 -0.95966
LeftForeArm  31.8207 2.07547 1.28099
LeftHand  -0.25398 0.0180481 5.50724
RightShoulder  0.583777 -0.162049 10.1998
RightArm  -22.1335 1.94522 1.01385
RightForeArm  -3.65173 -0.813472 2.93036
RightHand  -1.76765 6.1697 -18.0098
LeftUpLeg  0.885344 6.13372 4.16098
LeftLeg  4.18839 13.3955 -3.50143
LeftFoot  -4.07678 0.00856686 0.261426
LeftToes  1.06248e-005 4.65856e-005 -8.185e-006
5
root  81.6328 40.3961 1.04179 159.883 -87.8884 -160.175
RightUpLeg  0.15622 -7.00508 -4.46156
RightLeg  2.50436 0.242192 3.1345
RightFoot  -1.1262 0.0162108 -0.339032
RightToes  0.00048216 0.542163 -0.142577
Spine  4.67436 0.819182 2.01687
Spine1  3.20171 1.25329 -1.74924
HEad  4.19196 -0.0902378 -0.0905732
LeftShoulder1  0.976801 -1.32546 -13.0948
LeftArm  -22.7022 2.95676 -0.628545
LeftForeArm  30.9002 1.94152 1.10125
LeftHand  -0.25398 0.0180481 5.50724
RightShoulder  0.607911 -0.0735963 10.4827
RightArm  -22.1445 1.94344 0.768833
RightForeArm  -4.17893 -0.808277 2.9533
RightHand  -1.73377 5.849 -18.155
LeftUpLeg  0.929764 6.09876 4.13082
LeftLeg  4.22283 13.3612 -3.46314
LeftFoot  -4.1112 0.00844779 0.263277
LeftToes  1.06248e-005 4.65856e-005 -8.185e-006
6
root  81.609 40.3954 1.07385 159.011 -87.8959 -159.367
RightUpLeg  0.290068 -7.02797 -4.50563
RightLeg  2.45385 0.266606 3.13848
RightFoot  -1.13204 0.0138042 -0.301656
RightToes  0.00048216 0.542163 -0.142577
Spine  4.86251 0.816833 1.91399
Spine1  3.00539 1.1924 -1.49195
HEad  4.4464 0.241882 -0.388939
LeftShoulder1  1.00912 -1.42261 -13.3826
LeftArm  -22.5815 3.08914 -0.417699
LeftForeArm  30.8138 1.92053 1.0702
LeftHand  -0.25398 0.0180481 5.50724
RightShoulder  0.608726 -0.0456359 10.3494
RightArm  -22.0459 1.89886 0.732323
RightForeArm  -4.71672 -0.788026 3.01257
RightHand  -1.7159 5.62956 -18.3129
LeftUpLeg  1.01034 6.06212 4.09619
LeftLeg  4.2635 13.3836 -3.41601
LeftFoot  -4.16458 0.00850338 0.264459
LeftToes  1.06248e-005 4.65856e-005 -8.185e-006
7
root  81.5844 40.3947 1.09966 158.894 -87.8484 -159.234
RightUpLeg  0.316007 -7.07548 -4.54933
RightLeg  2.43482 0.366497 3.18035
RightFoot  -1.12721 0.014248 -0.308549
RightToes  0.00048216 0.542163 -0.142577
Spine  4.92309 0.841244 1.74134
Spine1  2.87762 1.14078 -1.1442
HEad  4.42496 0.202417 -0.564778
LeftShoulder1  0.974064 -1.21692 -13.5342
LeftArm  -22.8408 2.95463 -0.492482
LeftForeArm  31.6175 1.96822 1.20605
LeftHand  -0.25398 0.0180481 5.50724
RightShoulder  0.602687 -0.0134927 9.97855
RightArm  -22.0347 1.76556 0.89588
RightForeArm  -4.55799 -0.759454 2.99664
RightHand  -1.73245 5.75445 -18.2875
LeftUpLeg  1.00804 6.05176 4.07482
LeftLeg  4.32011 13.4352 -3.39526
LeftFoot  -4.23845 0.00884808 0.270731
LeftToes  1.06248e-005 4.65856e-005 -8.185e-006
8
root  81.558 40.394 1.11889 159.355 -87.7654 -159.596
RightUpLeg  0.236658 -7.09576 -4.56414
RightLeg  2.43498 0.467552 3.20454
RightFoot  -1.12965 0.0153567 -0.325767
RightToes  0.00048216 0.542163 -0.142577
Spine  4.77699 0.881649 1.64924
Spine1  2.90452 1.1477 -0.973897
HEad  4.10421 -0.402426 -0.474897
LeftShoulder1  0.954724 -1.09492 -13.658
LeftArm  -22.7837 2.88051 -0.507825
LeftForeArm  30.7742 1.92513 1.12617
LeftHand  -0.25398 0.0180481 5.50724
RightShoulder  0.59676 -0.0014793 9.72764
RightArm  -22.084 1.54979 1.03838
RightForeArm  -4.05722 -0.607802 2.9495
RightHand  -1.75891 5.99354 -18.1863
LeftUpLeg  0.944297 6.06972 4.06581
LeftLeg  4.34589 13.5023 -3.41384
LeftFoot  -4.30368 0.00813143 0.297414
LeftToes  1.06248e-005 4.65856e-005 -8.185e-006
9
root  81.5315 40.3926 1.14141 160.081 -87.6385 -160.252
RightUpLeg  0.187569 -7.08432 -4.57274
RightLeg  2.42108 0.587042 3.19737
RightFoot  -1.15212 0.00951531 -0.235052
RightToes  0.00048216 0.542163 -0.142577
Spine  4.51956 0.95867 1.84375
Spine1  3.12957 1.29442 -1.32416
HEad  3.82082 -1.06372 -0.192889
LeftShoulder1  0.987672 -1.28699 -13.5211
LeftArm  -22.3879 2.97674 -0.546607
LeftForeArm  26.8863 1.86133 0.789393
LeftHand  -0.25398 0.0180481 5.50724
RightShoulder  0.590916 -0.0955811 10.0551
RightArm  -22.0687 1.4287 0.866021
RightForeArm  -3.92763 -0.410144 2.96266
RightHand  -1.77488 6.1087 -18.1711
LeftUpLeg  0.946771 6.10953 4.06365
LeftLeg  4.32519 13.6007 -3.45519
LeftFoot  -4.37344 0.00540501 0.354937
LeftToes  1.06248e-005 4.65856e-005 -8.185e-006
10
root  81.5074 40.3891 1.17547 160.578 -87.4784 -160.765
RightUpLeg  0.225675 -7.08876 -4.60647
RightLeg  2.41209 0.76592 3.20126
RightFoot  -1.1649 -0.00234848 -0.0567736
RightToes  0.00048216 0.542163 -0.142577
Spine  4.43232 0.981268 2.14402
Spine1  3.23586 1.42249 -1.79889
HEad  4.00636 -0.697939 -0.105193
LeftShoulder1  1.01156 -1.43246 -13.3903
LeftArm  -22.2907 3.14925 -0.622995
LeftForeArm  23.139 1.72057 0.590763
LeftHand  -0.25398 0.0180481 5.50724
RightShoulder  0.600651 -0.122036 10.5244
RightArm  -22.0607 1.50146 0.683463
RightForeArm  -3.89901 -0.378294 2.97578
RightHand  -1.79656 6.20228 -18.2441
LeftUpLeg  1.03694 6.15889 4.06624
LeftLeg  4.32533 13.7232 -3.48868
LeftFoot  -4.50959 0.00336712 0.402924
LeftToes  1.06248e-005 4.65856e-005 -8.185e-006
11
root  81.4859 40.3841 1.22039 160.681 -87.3646 -160.906
RightUpLeg  0.277274 -7.15059 -4.68118
RightLeg  2.43931 0.952132 3.24437
RightFoot  -1.15031 -0.00982761 0.0371112
RightToes  0.00048216 0.542163 -0.142577
Spine  4.54641 0.971692 2.41338
Spine1  3.08499 1.49694 -2.18156
HEad  4.3781 0.0849167 -0.087847
LeftShoulder1  0.986166 -1.35487 -13.1731
LeftArm  -22.3863 3.29678 -1.17053
LeftForeArm  20.1569 1.36896 0.456138
LeftHand  -0.25398 0.0180481 5.50724
RightShoulder  0.628919 -0.0368546 10.9461
RightArm  -22.1682 1.46023 0.684361
RightForeArm  -3.69878 -0.307296 2.93127
RightHand  -1.84594 6.40814 -18.4159
LeftUpLeg  1.10734 6.16328 4.03312
LeftLeg  4.39528 13.8404 -3.474
LeftFoot  -4.73149 0.00743517 0.358739
LeftToes  1.06248e-005 4.65856e-005 -8.185e-006
